<svg width="303" height="286" viewBox="0 0 303 286" fill="none" xmlns="http://www.w3.org/2000/svg">
<g opacity="0.4">
<path d="M202.507 92.1566L177.374 117.29C163.075 102.992 139.779 102.992 125.48 117.29L25.1332 217.637L0 192.504L100.347 92.1566C128.502 64.0012 174.352 64.0012 202.507 92.1566Z" fill="#2E2E2E"/>
<path d="M302.824 93.9939L202.477 194.341C174.321 222.496 128.472 222.496 100.316 194.341L125.449 169.207C139.748 183.506 163.045 183.506 177.343 169.207L277.69 68.8604L302.824 93.9939Z" fill="#2E2E2E"/>
<path d="M251.746 243.584C196.412 298.918 106.388 298.918 51.0762 243.584L76.2094 218.45C117.687 259.928 185.159 259.928 226.613 218.45L251.746 243.584Z" fill="#2E2E2E"/>
<path d="M251.746 42.9133L226.613 68.0465C185.136 26.5686 117.664 26.5686 76.2094 68.0465L51.0762 42.9133C106.411 -12.4216 196.435 -12.4216 251.746 42.9133Z" fill="#2E2E2E"/>
</g>
</svg>
