<svg width="275" height="248" viewBox="0 0 275 248" fill="none" xmlns="http://www.w3.org/2000/svg">
<g opacity="0.4">
<path d="M202.92 92.6944L177.786 117.828C163.487 103.53 140.191 103.53 125.892 117.828L25.5453 218.175L0.412109 193.042L100.759 92.6944C128.915 64.539 174.764 64.539 202.92 92.6944Z" fill="#EEEEEE"/>
<path d="M303.236 94.5324L202.889 194.879C174.733 223.035 128.884 223.035 100.728 194.879L125.861 169.746C140.16 184.045 163.457 184.045 177.755 169.746L278.102 69.3988L303.236 94.5324Z" fill="#EEEEEE"/>
<path d="M252.158 244.122C196.824 299.457 106.8 299.457 51.4883 244.122L76.6215 218.989C118.1 260.466 185.571 260.466 227.026 218.989L252.158 244.122Z" fill="#EEEEEE"/>
<path d="M252.158 43.4515L227.026 68.5847C185.548 27.1068 118.076 27.1068 76.6215 68.5847L51.4883 43.4515C106.823 -11.8834 196.847 -11.8834 252.158 43.4515Z" fill="#EEEEEE"/>
</g>
</svg>
