<svg xmlns="http://www.w3.org/2000/svg" width="24" height="22" viewBox="0 0 24 22" fill="none">
  <path d="M15.574 6.75447L13.7032 8.62533C12.6388 7.561 10.9047 7.561 9.84037 8.62533L2.37084 16.0948L0.5 14.224L7.9695 6.75447C10.0653 4.65867 13.4782 4.65867 15.574 6.75447Z" fill="#DCD7FE"/>
  <path d="M23.0418 6.89137L15.5723 14.3609C13.4765 16.4567 10.0636 16.4567 7.96777 14.3609L9.83858 12.49C10.903 13.5544 12.6371 13.5544 13.7014 12.49L21.1709 5.02051L23.0418 6.89137Z" fill="#DCD7FE"/>
  <path d="M19.2395 18.0261C15.1206 22.1451 8.41947 22.1451 4.30225 18.0261L6.17309 16.1553C9.26058 19.2428 14.2829 19.2428 17.3687 16.1553L19.2395 18.0261Z" fill="#DCD7FE"/>
  <path d="M19.2395 3.08922L17.3687 4.96006C14.2812 1.87257 9.25885 1.87257 6.17309 4.96006L4.30225 3.08922C8.4212 -1.02974 15.1223 -1.02974 19.2395 3.08922Z" fill="#DCD7FE"/>
</svg>