<svg width="23" height="22" viewBox="0 0 23 22" fill="none" xmlns="http://www.w3.org/2000/svg">
<path d="M15.074 6.75471L13.2032 8.62558C12.1388 7.56125 10.4047 7.56125 9.34037 8.62558L1.87084 16.0951L0 14.2243L7.4695 6.75471C9.56533 4.65891 12.9782 4.65891 15.074 6.75471Z" fill="#2E2E2E"/>
<path d="M22.5418 6.89137L15.0723 14.3609C12.9765 16.4567 9.5636 16.4567 7.46777 14.3609L9.33858 12.49C10.403 13.5544 12.1371 13.5544 13.2014 12.49L20.6709 5.02051L22.5418 6.89137Z" fill="#2E2E2E"/>
<path d="M18.7395 18.0266C14.6206 22.1455 7.91947 22.1455 3.80225 18.0266L5.67309 16.1558C8.76058 19.2432 13.7829 19.2432 16.8687 16.1558L18.7395 18.0266Z" fill="#2E2E2E"/>
<path d="M18.7395 3.08922L16.8687 4.96006C13.7812 1.87257 8.75885 1.87257 5.67309 4.96006L3.80225 3.08922C7.9212 -1.02974 14.6223 -1.02974 18.7395 3.08922Z" fill="#2E2E2E"/>
</svg>
