<svg
  width="120"
  height="38"
  viewBox="0 0 120 38"
  fill="none"
  xmlns="http://www.w3.org/2000/svg">
  <path
    d="M24.3544 11.8695L21.3317 14.8922C19.6121 13.1726 16.8104 13.1726 15.0908 14.8922L3.02263 26.9603L0 23.9378L12.0681 11.8695C15.4543 8.48343 20.9683 8.48343 24.3544 11.8695Z"
    fill="#2E2E2E" />
  <path
    d="M36.4199 12.0905L24.3517 24.1587C20.9656 27.5448 15.4516 27.5448 12.0654 24.1587L15.088 21.136C16.8077 22.8557 19.6094 22.8557 21.329 21.136L33.3972 9.06787L36.4199 12.0905Z"
    fill="#2E2E2E" />
  <path
    d="M30.2765 30.081C23.6218 36.7357 12.7951 36.7357 6.14307 30.081L9.1657 27.0583C14.154 32.0466 22.2684 32.0466 27.2539 27.0583L30.2765 30.081Z"
    fill="#2E2E2E" />
  <path
    d="M30.2765 5.94741L27.2539 8.97004C22.2656 3.98173 14.1512 3.98173 9.1657 8.97004L6.14307 5.94741C12.7979 -0.707404 23.6246 -0.707404 30.2765 5.94741Z"
    fill="#2E2E2E" />
  <path
    d="M60.0463 28.4935L55.2835 20.2865H50.9062V28.4935H47.2051V5.96216H56.2189C58.2476 5.96216 59.9516 6.66992 61.3379 8.08545C62.7534 9.46943 63.4611 11.1758 63.4611 13.2021C63.4611 16.0669 61.6579 18.6749 58.9868 19.7366L64.1058 28.4912H60.0508L60.0463 28.4935ZM50.9062 9.44013V16.9709H56.2167C58.1799 16.9709 59.7578 15.2961 59.7578 13.2044C59.7578 11.1126 58.1799 9.43787 56.2167 9.43787H50.9062V9.44013Z"
    fill="#2E2E2E" />
  <path
    d="M67.3198 21.9276C67.836 24.3732 69.7992 25.7256 72.4703 25.7256C74.3051 25.7256 75.6891 25.0493 76.6222 23.7308L79.4871 25.4055C77.9093 27.7542 75.5606 28.9151 72.4387 28.9151C69.8308 28.9151 67.7075 28.1104 66.0982 26.5325C64.4888 24.9231 63.6841 22.8946 63.6841 20.4489C63.6841 18.0033 64.4888 16.04 66.0666 14.4307C67.6444 12.7897 69.7046 11.985 72.1817 11.985C74.5328 11.985 76.4622 12.8212 77.9747 14.4622C79.4871 16.1032 80.2602 18.1318 80.2602 20.4805C80.2602 20.8343 80.2287 21.3167 80.1318 21.9298H67.3198V21.9276ZM76.7507 19.0943C76.2683 16.4864 74.4335 15.1362 72.148 15.1362C69.5738 15.1362 67.7707 16.6486 67.2883 19.0943H76.7507Z"
    fill="#2E2E2E" />
  <path
    d="M82.0288 28.4935V4.99744H85.5045V28.4935H82.0288Z"
    fill="#2E2E2E" />
  <path
    d="M100.987 12.3998H104.462V28.4935H100.987V26.1764C99.6679 28.0111 97.7996 28.9128 95.354 28.9128C93.1339 28.9128 91.2648 28.1081 89.689 26.4672C88.1115 24.8262 87.3384 22.7976 87.3384 20.4489C87.3384 18.1002 88.1115 16.0716 89.689 14.4307C91.2671 12.7897 93.1339 11.985 95.354 11.985C97.7996 11.985 99.6679 12.8866 100.987 14.6876V12.402V12.3998ZM95.9013 25.5971C97.3508 25.5971 98.5725 25.1148 99.5394 24.1478C100.504 23.1492 100.989 21.9276 100.989 20.4466C100.989 18.9658 100.506 17.7418 99.5394 16.7771C98.5748 15.7785 97.3508 15.2962 95.9013 15.2962C94.4518 15.2962 93.2301 15.7785 92.2632 16.7771C91.2987 17.7418 90.8137 18.9658 90.8137 20.4466C90.8137 21.9276 91.2964 23.1492 92.2632 24.1478C93.2278 25.1125 94.4518 25.5971 95.9013 25.5971Z"
    fill="#2E2E2E" />
  <path
    d="M112.893 20.3698H116.603L120 12.3997H116.335L112.893 20.3698Z"
    fill="#2E2E2E" />
  <path
    d="M109.497 37.0384H105.697L111.016 24.7202L105.697 12.3997H109.497L114.749 24.7202L109.497 37.0384Z"
    fill="#2E2E2E" />
</svg>